<svg xmlns="http://www.w3.org/2000/svg" xmlns:xlink="http://www.w3.org/1999/xlink" width="0" height="0" style="position:absolute">

  <symbol id="angle-down" viewBox="0 0 320 512">
    <path fill="currentColor" d="M151.5 347.8L3.5 201c-4.7-4.7-4.7-12.3 0-17l19.8-19.8c4.7-4.7 12.3-4.7 17 0L160 282.7l119.7-118.5c4.7-4.7 12.3-4.7 17 0l19.8 19.8c4.7 4.7 4.7 12.3 0 17l-148 146.8c-4.7 4.7-12.3 4.7-17 0z"></path>
  </symbol>

  <symbol id="arrow" viewBox="0 0 448 512">
    <path fill="currentColor" d="M190.5 66.9l22.2-22.2c9.4-9.4 24.6-9.4 33.9 0L441 239c9.4 9.4 9.4 24.6 0 33.9L246.6 467.3c-9.4 9.4-24.6 9.4-33.9 0l-22.2-22.2c-9.5-9.5-9.3-25 .4-34.3L311.4 296H24c-13.3 0-24-10.7-24-24v-32c0-13.3 10.7-24 24-24h287.4L190.9 101.2c-9.8-9.3-10-24.8-.4-34.3z"></path>
  </symbol>

  <symbol id="badge-dollar" viewBox="0 0 20 20">
    <path fill="currentColor" d="M18.06 13.34a3.84 3.84 0 0 1-4.72 4.72 3.85 3.85 0 0 1-6.68 0 3.84 3.84 0 0 1-4.72-4.72 3.85 3.85 0 0 1 0-6.68 3.84 3.84 0 0 1 4.72-4.72 3.85 3.85 0 0 1 6.68 0 3.84 3.84 0 0 1 4.72 4.72 3.85 3.85 0 0 1 0 6.68zm.69-3.34a2.88 2.88 0 0 0-2.31-2.67 2.86 2.86 0 0 0-.25-3.52 2.88 2.88 0 0 0-3.52-.25A2.86 2.86 0 0 0 10 1.25a2.88 2.88 0 0 0-2.67 2.31 2.86 2.86 0 0 0-3.52.25 2.88 2.88 0 0 0-.25 3.52A2.86 2.86 0 0 0 1.25 10a2.88 2.88 0 0 0 2.31 2.67 2.88 2.88 0 0 0 .25 3.52c1.13 1.12 2.25.83 3.52.25A2.86 2.86 0 0 0 10 18.75a2.88 2.88 0 0 0 2.67-2.31c1.27.58 2.39.88 3.52-.25a2.88 2.88 0 0 0 .25-3.52A2.86 2.86 0 0 0 18.75 10zm-6.05 2.38a2.12 2.12 0 0 1-2 1.37v.94a.31.31 0 0 1-.32.31h-.69a.31.31 0 0 1-.31-.31v-.94h-.06a2.7 2.7 0 0 1-1.67-.57.3.3 0 0 1 0-.47l.44-.45a.32.32 0 0 1 .39 0 1.45 1.45 0 0 0 .88.29h1.44a.8.8 0 0 0 .2-1.62l-2.2-.63a2.13 2.13 0 0 1-1.6-1.8 2 2 0 0 1 2-2.25h.14v-.94A.31.31 0 0 1 9.69 5h.62a.31.31 0 0 1 .32.31v.94a2.7 2.7 0 0 1 1.67.57.3.3 0 0 1 0 .47l-.3.45a.32.32 0 0 1-.39 0 1.45 1.45 0 0 0-.88-.29H9.24A.8.8 0 0 0 9 9.07l2.31.66a2.07 2.07 0 0 1 1.39 2.65z"></path>
  </symbol>

  <symbol id="bicycle" viewBox="0 0 640 512">
    <path fill="currentColor" d="M512.303 192c-19.586-.047-38.147 4.313-54.759 12.132L373.508 71.439A16 16 0 0 0 359.991 64h-67.998c-6.627 0-12 5.373-12 12v8c0 6.627 5.372 12 12 12h59.193l40.532 64H255.994v-20c0-6.627-5.372-12-12-12h-83.998c-8.836 0-16 7.163-16 16s7.163 16 16 16h55.999l-31.808 44.969c-17.085-8.362-36.303-13.035-56.622-12.968C56.937 192.234-.001 249.37 0 320c.001 70.692 57.307 128 127.997 128 59.641 0 109.755-40.793 123.964-96h52.031a16.001 16.001 0 0 0 13.107-6.824l100.744-143.924 12.677 20.018c-28.385 23.449-46.487 58.903-46.531 98.587-.077 69.963 56.843 127.499 126.801 128.138 70.559.644 128.101-55.842 129.193-125.995 1.099-70.503-57.17-129.829-127.68-130zM127.997 416c-52.933 0-95.998-43.065-95.998-96s43.064-96 95.998-96c13.307 0 25.989 2.724 37.521 7.639L98.89 326.824C91.47 337.423 99.083 352 111.997 352h106.506c-13.207 37.248-48.788 64-90.506 64zm95.998-96h-81.268l49.744-71.065c19.354 17.575 31.524 42.925 31.524 71.065zm71.668 0h-39.669c0-39.04-17.483-73.992-45.04-97.47L232.325 192H385.26l-89.597 128zm212.533 95.927c-50.058-1.938-90.528-42.677-92.154-92.747-.961-29.57 11.533-56.303 31.81-74.546l52.759 83.306c3.546 5.599 10.959 7.263 16.558 3.717l6.758-4.281c5.599-3.546 7.263-10.96 3.717-16.558l-52.785-83.346c11.427-4.811 23.972-7.473 37.128-7.473 52.933 0 95.998 43.065 95.998 96 .001 54.194-45.136 98.043-99.789 95.928z"></path>
  </symbol>

  <symbol id="blog" viewBox="0 0 27.15 27.4">
    <title>Blog icon</title>
    <path fill="currentColor" d="M0 14.27V8.41A2.13 2.13 0 0 1 2.22 6a2.18 2.18 0 0 1 2.29 2.44v11a3.11 3.11 0 0 0 3.33 3.25 3.2 3.2 0 0 0 2.78-3.29c0-1.68-1.1-2.67-3-2.78a2.21 2.21 0 0 1-2.31-2.7 2 2 0 0 1 2.12-1.84 7.12 7.12 0 0 1 7.65 7.2 7.7 7.7 0 0 1-7.47 8.12A7.61 7.61 0 0 1 0 19.78v-5.51zM19.44 18.74a1.6 1.6 0 0 1-1.56-1.28A10.77 10.77 0 0 0 10 9.29a1.6 1.6 0 1 1 .75-3.11A13.84 13.84 0 0 1 21 16.81a1.6 1.6 0 0 1-1.24 1.89 1.64 1.64 0 0 1-.32.04z"></path>
    <path fill="currentColor" d="M25.55 18.67A1.6 1.6 0 0 1 24 17.3 17 17 0 0 0 10.21 3.18 1.6 1.6 0 0 1 10.72 0a20 20 0 0 1 16.41 16.85 1.6 1.6 0 0 1-1.36 1.81z"></path>
  </symbol>

  <symbol id="building" viewBox="0 0 448 512">
    <path fill="currentColor" d="M192 107v40c0 6.627-5.373 12-12 12h-40c-6.627 0-12-5.373-12-12v-40c0-6.627 5.373-12 12-12h40c6.627 0 12 5.373 12 12zm116-12h-40c-6.627 0-12 5.373-12 12v40c0 6.627 5.373 12 12 12h40c6.627 0 12-5.373 12-12v-40c0-6.627-5.373-12-12-12zm-128 96h-40c-6.627 0-12 5.373-12 12v40c0 6.627 5.373 12 12 12h40c6.627 0 12-5.373 12-12v-40c0-6.627-5.373-12-12-12zm128 0h-40c-6.627 0-12 5.373-12 12v40c0 6.627 5.373 12 12 12h40c6.627 0 12-5.373 12-12v-40c0-6.627-5.373-12-12-12zm-128 96h-40c-6.627 0-12 5.373-12 12v40c0 6.627 5.373 12 12 12h40c6.627 0 12-5.373 12-12v-40c0-6.627-5.373-12-12-12zm128 0h-40c-6.627 0-12 5.373-12 12v40c0 6.627 5.373 12 12 12h40c6.627 0 12-5.373 12-12v-40c0-6.627-5.373-12-12-12zm140 205v20H0v-20c0-6.627 5.373-12 12-12h20V24C32 10.745 42.745 0 56 0h336c13.255 0 24 10.745 24 24v456h20c6.627 0 12 5.373 12 12zm-64-12V32H64v448h128v-85c0-6.627 5.373-12 12-12h40c6.627 0 12 5.373 12 12v85h128z"></path>
  </symbol>

  <symbol id="calendar-day" viewBox="0 0 17.5 20">
    <path fill="currentColor" d="M17.5 4.38v13.75A1.87 1.87 0 0 1 15.63 20H1.88A1.88 1.88 0 0 1 0 18.13V4.38A1.88 1.88 0 0 1 1.88 2.5h1.87V.31A.31.31 0 0 1 4.06 0h.63A.31.31 0 0 1 5 .31V2.5h7.5V.31a.31.31 0 0 1 .31-.31h.63a.31.31 0 0 1 .31.31V2.5h1.88a1.88 1.88 0 0 1 1.87 1.88zm-1.25 0a.63.63 0 0 0-.62-.63H1.88a.63.63 0 0 0-.63.63v1.87h15zm0 3.12h-15v10.63a.63.63 0 0 0 .63.62h13.75a.62.62 0 0 0 .62-.62zm-12.5 6.88v-3.75a.63.63 0 0 1 .63-.63h3.75a.63.63 0 0 1 .62.63v3.75a.62.62 0 0 1-.62.62H4.38a.63.63 0 0 1-.63-.62zM5 13.75h2.5v-2.5H5z"></path>
  </symbol>

  <symbol id="camera" viewBox="0 0 512 512">
    <path fill="currentColor" d="M342.7 144H464v288H48V144h121.3l24-64h125.5l23.9 64zM324.3 32h-131c-20 0-37.9 12.4-44.9 31.1L136 96H48c-26.5 0-48 21.5-48 48v288c0 26.5 21.5 48 48 48h416c26.5 0 48-21.5 48-48V144c0-26.5-21.5-48-48-48h-88l-14.3-38c-5.8-15.7-20.7-26-37.4-26zM256 408c-66.2 0-120-53.8-120-120s53.8-120 120-120 120 53.8 120 120-53.8 120-120 120zm0-192c-39.7 0-72 32.3-72 72s32.3 72 72 72 72-32.3 72-72-32.3-72-72-72z"></path>
  </symbol>

  <symbol id="car" viewBox="0 0 512 512">
    <path fill="currentColor" d="M120.81 248c-25.96 0-44.8 16.8-44.8 39.95 0 23.15 18.84 39.95 44.8 39.95l10.14.1c39.21 0 45.06-20.1 45.06-32.08-.01-24.68-31.1-47.92-55.2-47.92zm10.14 56c-3.51 0-7.02-.1-10.14-.1-12.48 0-20.8-6.38-20.8-15.95s8.32-15.95 20.8-15.95 31.2 14.36 31.2 23.93c0 7.17-10.54 8.07-21.06 8.07zm260.24-56c-24.1 0-55.19 23.24-55.19 47.93 0 11.98 5.85 32.08 45.06 32.08l10.14-.1c25.96 0 44.8-16.8 44.8-39.95-.01-23.16-18.85-39.96-44.81-39.96zm0 55.9c-3.12 0-6.63.1-10.14.1-10.53 0-21.06-.9-21.06-8.07 0-9.57 18.72-23.93 31.2-23.93s20.8 6.38 20.8 15.95-8.32 15.95-20.8 15.95zm114.8-140.94c-7.34-11.88-20.06-18.97-34.03-18.97H422.3l-8.07-24.76C403.5 86.29 372.8 64 338.17 64H173.83c-34.64 0-65.33 22.29-76.06 55.22l-8.07 24.76H40.04c-13.97 0-26.69 7.09-34.03 18.97s-8 26.42-1.75 38.91l5.78 11.61c3.96 7.88 9.92 14.09 17 18.55-6.91 11.74-11.03 25.32-11.03 39.97V400c0 26.47 21.53 48 48 48h16c26.47 0 48-21.53 48-48v-16H384v16c0 26.47 21.53 48 48 48h16c26.47 0 48-21.53 48-48V271.99c0-14.66-4.12-28.23-11.03-39.98 7.09-4.46 13.04-10.68 17-18.57l5.78-11.56c6.24-12.5 5.58-27.05-1.76-38.92zM128.2 129.14C134.66 109.32 153 96 173.84 96h164.33c20.84 0 39.18 13.32 45.64 33.13l20.47 62.85H107.73l20.47-62.84zm-89.53 70.02l-5.78-11.59c-1.81-3.59-.34-6.64.34-7.78.87-1.42 2.94-3.8 6.81-3.8h39.24l-6.45 19.82a80.69 80.69 0 0 0-23.01 11.29c-4.71-1-8.94-3.52-11.15-7.94zM96.01 400c0 8.83-7.19 16-16 16h-16c-8.81 0-16-7.17-16-16v-16h48v16zm367.98 0c0 8.83-7.19 16-16 16h-16c-8.81 0-16-7.17-16-16v-16h48v16zm0-80.01v32H48.01v-80c0-26.47 21.53-48 48-48h319.98c26.47 0 48 21.53 48 48v48zm15.12-132.41l-5.78 11.55c-2.21 4.44-6.44 6.97-11.15 7.97-6.94-4.9-14.69-8.76-23.01-11.29l-6.45-19.82h39.24c3.87 0 5.94 2.38 6.81 3.8.69 1.14 2.16 4.18.34 7.79z"></path>
  </symbol>

  <symbol id="check" viewBox="0 0 448 512">
    <path fill="currentColor" d="M413.505 91.951L133.49 371.966l-98.995-98.995c-4.686-4.686-12.284-4.686-16.971 0L6.211 284.284c-4.686 4.686-4.686 12.284 0 16.971l118.794 118.794c4.686 4.686 12.284 4.686 16.971 0l299.813-299.813c4.686-4.686 4.686-12.284 0-16.971l-11.314-11.314c-4.686-4.686-12.284-4.686-16.97 0z"></path>
  </symbol>

  <symbol id="clock" viewBox="0 0 19.38 19.38">
    <path fill="currentColor" d="M19.38 9.69A9.69 9.69 0 1 1 9.69 0a9.69 9.69 0 0 1 9.69 9.69zM9.69 1.25a8.44 8.44 0 1 0 8.44 8.44 8.44 8.44 0 0 0-8.44-8.44zm-.55 9.58a.47.47 0 0 1-.14-.38V4.22a.47.47 0 0 1 .46-.47H10a.47.47 0 0 1 .47.47v5.71l2.75 2a.47.47 0 0 1 .11.65L13 13a.47.47 0 0 1-.65.1z"></path>
  </symbol>

  <symbol id="directions" viewBox="0 0 512 512">
    <path fill="currentColor" d="M502.61 233.32L278.68 9.39C272.42 3.13 264.21 0 256 0s-16.42 3.13-22.68 9.39L9.39 233.32c-12.52 12.53-12.52 32.83 0 45.36l223.93 223.93c6.26 6.26 14.47 9.39 22.68 9.39s16.42-3.13 22.68-9.39l223.93-223.93c12.52-12.53 12.52-32.83 0-45.36zM255.95 479.98L32.02 255.95 255.95 32.01c.01 0 .02-.01.05-.01l.05.02 223.93 224.03-224.03 223.93zM330.89 224H208c-26.51 0-48 21.49-48 48v40c0 4.42 3.58 8 8 8h16c4.42 0 8-3.58 8-8v-40c0-8.84 7.16-16 16-16h122.89l-54.63 50.43c-3.25 3-3.45 8.06-.45 11.3l10.84 11.74c3 3.25 8.06 3.45 11.3.45l78.4-72.36c4.87-4.52 7.66-10.94 7.66-17.58s-2.78-13.06-7.72-17.62l-78.34-72.31c-3.25-3-8.31-2.79-11.3.45l-10.84 11.74c-3 3.25-2.79 8.31.45 11.3L330.89 224z"></path>
  </symbol>

  <symbol id="dot-circle" viewBox="0 0 512 512">
    <path fill="currentColor" d="M256 8C119.033 8 8 119.033 8 256s111.033 248 248 248 248-111.033 248-248S392.967 8 256 8zm80 248c0 44.112-35.888 80-80 80s-80-35.888-80-80 35.888-80 80-80 80 35.888 80 80z"></path>
  </symbol>

  <symbol id="download" viewBox="0 0 512 512">
    <path fill="currentColor" d="M452 432c0 11-9 20-20 20s-20-9-20-20 9-20 20-20 20 9 20 20zm-84-20c-11 0-20 9-20 20s9 20 20 20 20-9 20-20-9-20-20-20zm144-48v104c0 24.3-19.7 44-44 44H44c-24.3 0-44-19.7-44-44V364c0-24.3 19.7-44 44-44h99.4L87 263.6c-25.2-25.2-7.3-68.3 28.3-68.3H168V40c0-22.1 17.9-40 40-40h96c22.1 0 40 17.9 40 40v155.3h52.7c35.6 0 53.4 43.1 28.3 68.3L368.6 320H468c24.3 0 44 19.7 44 44zm-261.7 17.7c3.1 3.1 8.2 3.1 11.3 0L402.3 241c5-5 1.5-13.7-5.7-13.7H312V40c0-4.4-3.6-8-8-8h-96c-4.4 0-8 3.6-8 8v187.3h-84.7c-7.1 0-10.7 8.6-5.7 13.7l140.7 140.7zM480 364c0-6.6-5.4-12-12-12H336.6l-52.3 52.3c-15.6 15.6-41 15.6-56.6 0L175.4 352H44c-6.6 0-12 5.4-12 12v104c0 6.6 5.4 12 12 12h424c6.6 0 12-5.4 12-12V364z"></path>
  </symbol>

  <symbol id="envelope" viewBox="0 0 512 512">
    <path fill="currentColor" d="M464 64H48C21.5 64 0 85.5 0 112v288c0 26.5 21.5 48 48 48h416c26.5 0 48-21.5 48-48V112c0-26.5-21.5-48-48-48zM48 96h416c8.8 0 16 7.2 16 16v41.4c-21.9 18.5-53.2 44-150.6 121.3-16.9 13.4-50.2 45.7-73.4 45.3-23.2.4-56.6-31.9-73.4-45.3C85.2 197.4 53.9 171.9 32 153.4V112c0-8.8 7.2-16 16-16zm416 320H48c-8.8 0-16-7.2-16-16V195c22.8 18.7 58.8 47.6 130.7 104.7 20.5 16.4 56.7 52.5 93.3 52.3 36.4.3 72.3-35.5 93.3-52.3 71.9-57.1 107.9-86 130.7-104.7v205c0 8.8-7.2 16-16 16z"></path>
  </symbol>

  <symbol id="envelope-regular" viewBox="0 0 512 512">
    <path fill="currentColor" d="M464 64H48C21.49 64 0 85.49 0 112v288c0 26.51 21.49 48 48 48h416c26.51 0 48-21.49 48-48V112c0-26.51-21.49-48-48-48zm0 48v40.805c-22.422 18.259-58.168 46.651-134.587 106.49-16.841 13.247-50.201 45.072-73.413 44.701-23.208.375-56.579-31.459-73.413-44.701C106.18 199.465 70.425 171.067 48 152.805V112h416zM48 400V214.398c22.914 18.251 55.409 43.862 104.938 82.646 21.857 17.205 60.134 55.186 103.062 54.955 42.717.231 80.509-37.199 103.053-54.947 49.528-38.783 82.032-64.401 104.947-82.653V400H48z"></path>
  </symbol>

  <symbol id="event-type" viewBox="0 0 28.8 20.21">
    <path fill="currentColor" data-name="Path 124" d="M28.48 0H6a.31.31 0 0 0-.3.31V1a.31.31 0 0 0 .3.26h1v1.92a5 5 0 0 1 1.29.48v-2.4h18v11.37H11.77a5 5 0 0 1 .87.91 2.43 2.43 0 0 1 .2.35h3.77v1.94l-3.44 3.39a.31.31 0 0 0 0 .44l.45.44a.32.32 0 0 0 .46 0l3.17-3.1 3.17 3.13a.31.31 0 0 0 .45 0l.45-.44a.31.31 0 0 0 0-.45l-3.43-3.39V13.9h8.34a1.27 1.27 0 0 0 1.28-1.27V1.26h1A.32.32 0 0 0 28.8 1V.31a.33.33 0 0 0-.32-.31z"></path>
    <g data-name="Group 820" fill="currentColor">
      <path data-name="Path 125" d="M5.8 12.25h.29A3.56 3.56 0 0 0 6 5.13a3.56 3.56 0 0 0-.14 7.12zm.14-5.93A2.38 2.38 0 1 1 3.57 8.7 2.39 2.39 0 0 1 6 6.31z"></path>
      <path data-name="Path 126" d="M11.28 14.53a3.41 3.41 0 0 0-2.86-1.45c-1 0-1.29.37-2.48.37s-1.44-.37-2.48-.37a3.4 3.4 0 0 0-2.85 1.45 3.54 3.54 0 0 0-.61 2v1.39a1.49 1.49 0 0 0 1.48 1.48h8.92a1.49 1.49 0 0 0 1.49-1.49v-1.39a3.54 3.54 0 0 0-.61-1.99zm-.58 3.38a.3.3 0 0 1-.3.3H1.49a.29.29 0 0 1-.3-.3v-1.39a2.38 2.38 0 0 1 .4-1.32 2.23 2.23 0 0 1 1.87-.93c.81.16 1.63.29 2.46.37H6c.82-.08 1.64-.21 2.45-.37a2.23 2.23 0 0 1 1.87.93 2.38 2.38 0 0 1 .4 1.32z"></path>
    </g>
  </symbol>

  <symbol id="exchange-alt" viewBox="0 0 512 512">
    <path fill="currentColor" d="M0 168v-16c0-13.255 10.745-24 24-24h360V80c0-21.367 25.899-32.042 40.971-16.971l80 80c9.372 9.373 9.372 24.569 0 33.941l-80 80C409.956 271.982 384 261.456 384 240v-48H24c-13.255 0-24-10.745-24-24zm488 152H128v-48c0-21.314-25.862-32.08-40.971-16.971l-80 80c-9.372 9.373-9.372 24.569 0 33.941l80 80C102.057 463.997 128 453.437 128 432v-48h360c13.255 0 24-10.745 24-24v-16c0-13.255-10.745-24-24-24z"></path>
  </symbol>

  <symbol id="exclamation-triangle" viewBox="0 0 576 512">
    <path fill="currentColor" d="M270.2 160h35.5c3.4 0 6.1 2.8 6 6.2l-7.5 196c-.1 3.2-2.8 5.8-6 5.8h-20.5c-3.2 0-5.9-2.5-6-5.8l-7.5-196c-.1-3.4 2.6-6.2 6-6.2zM288 388c-15.5 0-28 12.5-28 28s12.5 28 28 28 28-12.5 28-28-12.5-28-28-28zm281.5 52L329.6 24c-18.4-32-64.7-32-83.2 0L6.5 440c-18.4 31.9 4.6 72 41.6 72H528c36.8 0 60-40 41.5-72zM528 480H48c-12.3 0-20-13.3-13.9-24l240-416c6.1-10.6 21.6-10.7 27.7 0l240 416c6.2 10.6-1.5 24-13.8 24z"></path>
  </symbol>

  <symbol id="expand-arrows" viewBox="0 0 448 512">
    <path fill="currentColor" d="M447.9 332l.1 136c0 6.6-5.4 12-12 12l-136-.1c-6.6 0-12-5.4-12-12v-27.8c0-6.7 5.5-12.1 12.2-12l61.4 2.3 1.4-1.4-139-139L85 429l1.4 1.4 61.4-2.3c6.7-.1 12.2 5.3 12.2 12v27.8c0 6.6-5.4 12-12 12L12 480c-6.6 0-12-5.4-12-12l.1-136c0-6.6 5.4-12 12-12h27.8c6.7 0 12.1 5.5 12 12.2l-2.3 61.4L51 395l139-139L51 117l-1.4 1.4 2.3 61.4c.1 6.7-5.3 12.2-12 12.2H12.1c-6.6 0-12-5.4-12-12L0 44c0-6.6 5.4-12 12-12l136 .1c6.6 0 12 5.4 12 12v27.8c0 6.7-5.5 12.1-12.2 12l-61.4-2.3L85 83l139 139L363 83l-1.4-1.4-61.4 2.3c-6.7.1-12.2-5.3-12.2-12V44.1c0-6.6 5.4-12 12-12l136-.1c6.6 0 12 5.4 12 12l-.1 136c0 6.6-5.4 12-12 12h-27.8c-6.7 0-12.1-5.5-12-12.2l2.3-61.4-1.4-1.4-139 139 139 139 1.4-1.4-2.3-61.4c-.1-6.7 5.3-12.2 12-12.2h27.8c6.6 0 12 5.4 12 12z"></path>
  </symbol>

  <symbol id="external-link" viewBox="0 0 20 20">
    <path fill="currentColor" d="M17.5 10.31v7.82A1.87 1.87 0 0 1 15.63 20H1.88A1.88 1.88 0 0 1 0 18.13V4.38A1.88 1.88 0 0 1 1.88 2.5h7.81a.31.31 0 0 1 .31.31v.63a.31.31 0 0 1-.31.31H1.88a.63.63 0 0 0-.63.63v13.75a.63.63 0 0 0 .63.62h13.75a.62.62 0 0 0 .62-.62v-7.82a.31.31 0 0 1 .31-.31h.63a.31.31 0 0 1 .31.31zM20 .47v5.31a.47.47 0 0 1-.47.47h-.39a.47.47 0 0 1-.47-.47V2.27L6 14.86a.46.46 0 0 1-.66 0l-.22-.22a.46.46 0 0 1 0-.66L17.76 1.36h-3.54a.47.47 0 0 1-.47-.47V.48a.47.47 0 0 1 .47-.48h5.31a.47.47 0 0 1 .47.47z"></path>
  </symbol>

  <symbol id="facebook" viewBox="0 0 264 512">
    <path fill="currentColor" d="M76.7 512V283H0v-91h76.7v-71.7C76.7 42.4 124.3 0 193.8 0c33.3 0 61.9 2.5 70.2 3.6V85h-48.2c-37.8 0-45.1 18-45.1 44.3V192H256l-11.7 91h-73.6v229"></path>
  </symbol>

  <symbol id="filter" viewBox="0 0 18.82 16.7">
    <rect fill="currentColor" x="6.43" y="14.21" width="5.97" height="2.49" rx=".26"></rect>
    <path fill="currentColor" d="M1.27 14.18a1.24 1.24 0 1 0 1.24 1.24 1.25 1.25 0 0 0-1.24-1.24z"></path>
    <rect fill="currentColor" x="6.43" y="7.11" width="12.39" height="2.49" rx=".26"></rect>
    <path fill="currentColor" d="M.26 2.52h18.29a.27.27 0 0 0 .27-.27v-2a.27.27 0 0 0-.27-.25H.26A.26.26 0 0 0 0 .26v2a.26.26 0 0 0 .26.26zM1.27 7.07a1.24 1.24 0 1 0 1.24 1.24 1.25 1.25 0 0 0-1.24-1.24z"></path>
  </symbol>

  <symbol id="globe-asia" viewBox="0 0 496 512">
    <path fill="currentColor" d="M248 8C111.04 8 0 119.03 0 256s111.04 248 248 248 248-111.03 248-248S384.96 8 248 8zm0 32c18.88 0 37.09 2.68 54.55 7.25l-51.93 43.78c-7.12 4.72-11.19 12.94-10.69 21.44.53 8.53 5.62 16.19 13.25 20.02l10.81 5.41v64.19c-1.75-.55-3.56-.88-5.44-.94-7.12 0-14.47 3.56-18.25 9.91L222.62 240c-8.53 0-16.59 3.33-22.62 9.38l-5.66 5.66c-4.53 4.53-7.03 10.56-7.03 16.97s2.5 12.44 7.03 16.97l5.66 5.66V304h-22.12l-22.59-45.23a23.997 23.997 0 0 0-17.66-12.95c-7.38-1.23-15.38 1.28-20.78 6.72L97.38 272H32.81c-.39-5.3-.81-10.6-.81-16 0-119.1 96.9-216 216-216zM37.56 304h59.81c8.53 0 16.59-3.33 22.62-9.38l11.62-11.61 17.62 35.31c5.47 10.91 16.44 17.67 28.62 17.67H200c17.66 0 32-14.36 32-32v-9.38c0-8.34-3.34-16.53-9.22-22.47l.16-.16c11.19 0 21.72-5.97 27.44-15.53l10.84-18.06c3.16 1.03 6.75 1.59 10.78 1.59 13.22 0 24-10.77 24-24v-78.11c0-12.16-6.72-23.09-17.56-28.56l59.07-49.67C412.01 93.76 464 168.84 464 256c0 22.71-3.57 44.58-10.09 65.16-1.32-1.77-2.38-3.7-3.96-5.29l-4.88-4.88V308c0-19.85-16.15-36-36-36H403c-5.5 0-10.79 1.27-15.55 3.57a40.04 40.04 0 0 0-16.56-3.57H358.8c-8.37 0-16.39 2.57-23.21 7.42l-23.72 16.9-38.25 15.14c-15.28 6.11-25.14 20.69-25.14 37.14v10.21c0 10.68 4.16 20.73 11.71 28.28L272.11 399c9.06 9.06 21.12 14.06 33.94 14.06h10.34c3.92 0 7.84-.48 11.64-1.43l18.39-4.6 10.91 10.91c5.38 5.38 11.89 9.13 18.93 11.45C340.34 456.03 296.06 472 248 472c-102.59 0-188.53-71.95-210.44-168zM409 399.49c-.87.14-1.68.51-2.57.51h-15.16c-4.24 0-8.31-1.69-11.31-4.69l-13.01-13.01a26.78 26.78 0 0 0-25.42-7.04l-21.27 5.32c-1.27.32-2.57.48-3.88.48h-10.34c-4.24 0-8.31-1.69-11.31-4.69l-11.91-11.91a8.008 8.008 0 0 1-2.34-5.66v-10.2c0-3.27 1.99-6.21 5.03-7.43l39.34-15.74c1.98-.79 3.86-1.82 5.59-3.05l23.71-16.89a8.05 8.05 0 0 1 4.64-1.48h12.09c3.23 0 6.15 1.94 7.39 4.93l5.35 12.85a4 4 0 0 0 3.69 2.46h3.8c1.78 0 3.35-1.17 3.84-2.88l4.2-14.47c.5-1.71 2.06-2.88 3.84-2.88h6.06c2.21 0 4 1.79 4 4v12.93c0 2.12.84 4.16 2.34 5.66l11.91 11.91c3 3 4.69 7.07 4.69 11.31v18.75A216.64 216.64 0 0 1 409 399.49z"></path>
  </symbol>

  <symbol id="handshake" viewBox="0 0 640 512">
    <path fill="currentColor" d="M16 319.8c8.8 0 16-7.2 16-16s-7.2-16-16-16-16 7.2-16 16c0 8.9 7.2 16 16 16zM632 128l-113.5.2-51.2-49.9c-9.1-9.1-21.1-14.1-33.9-14.1h-101c-10.4 0-20.1 3.9-28.3 10-8.4-6.5-18.7-10.3-29.3-10.3h-69.5c-12.7 0-24.9 5.1-33.9 14.1l-50 50H8c-4.4 0-8 3.6-8 8v16c0 4.4 3.6 8 8 8h56v191.9H8c-4.4 0-8 3.6-8 8v16c0 4.4 3.6 8 8 8h56c17.6 0 31.8-14.2 31.9-31.7h33.2l81.5 78c29.8 24.1 71.8 23.4 101-.2l7.2 6.2c9.6 7.8 21.3 11.9 33.5 11.9 16 0 31.1-7 41.4-19.6l21.9-26.9c16.4 8.9 42.9 9 60-12l9.5-11.7c6.2-7.6 9.6-16.6 10.5-25.7h48.6c.1 17.5 14.4 31.7 31.9 31.7h56c4.4 0 8-3.6 8-8v-16c0-4.4-3.6-8-8-8h-56V160.2l56-.2c4.4 0 8-3.6 8-8v-16c-.1-4.5-3.7-8-8.1-8zM460.2 357.6l-9.5 11.7c-5.4 6.6-15.4 8.1-22.5 2.3l-17.8-14.4-41.5 51c-7.5 9.3-21 10.2-29.4 3.4l-30.6-26.1-10.4 12.8c-16.7 20.5-47 23.7-66.6 7.9L142 320.1H96V159.9h38.6l59.3-59.3c3-3 7.1-4.7 11.3-4.7h69.5c.9 2.2.3.7 1.1 2.9l-59 54.2c-28.2 25.9-29.6 69.2-4.2 96.9 14.3 15.6 58.6 39.3 96.9 4.2l22.8-20.9 125.6 101.9c6.8 5.6 7.8 15.7 2.3 22.5zm83.8-37.5h-57.2c-2.5-3.5-5.3-6.9-8.8-9.8l-121.9-99 28.4-26.1c6.5-6 7-16.1 1-22.6s-16.1-6.9-22.6-1l-75.1 68.8c-14.4 13.1-38.6 12-51.7-2.2-13.6-14.8-12.7-38 2.2-51.7l83.1-76.2c3-2.7 6.8-4.2 10.8-4.2h101c4.3 0 8.3 1.7 11.4 4.8l60.7 59.1H544v160.1zm80-32.2c-8.8 0-16 7.2-16 16s7.2 16 16 16 16-7.2 16-16c0-8.9-7.2-16-16-16z"></path>
  </symbol>

  <symbol id="hourglass-half" viewBox="0 0 15 20">
    <path fill="currentColor" d="M9.31 10c3.34 1.19 5.07 5.16 5.07 8.75h.15a.47.47 0 0 1 .47.47v.31a.47.47 0 0 1-.47.47H.47a.47.47 0 0 1-.47-.47v-.31a.47.47 0 0 1 .47-.47h.16c0-3.58 1.71-7.56 5.06-8.75C2.35 8.81.63 4.84.63 1.25H.47A.47.47 0 0 1 0 .78V.47A.47.47 0 0 1 .47 0h14.06a.47.47 0 0 1 .47.47v.31a.47.47 0 0 1-.47.47h-.15c0 3.58-1.72 7.56-5.07 8.75zM7.5 9.06c3.11 0 5.63-3.5 5.63-7.81H1.88c0 4.31 2.51 7.81 5.62 7.81zm0 1.88c-3.11 0-5.62 3.5-5.62 7.81h11.25c0-4.31-2.52-7.81-5.63-7.81zm3.66 5.31a.49.49 0 0 1 .45.35l.08.33a.47.47 0 0 1-.46.57H3.77a.47.47 0 0 1-.46-.57c0-.11 0-.22.08-.33a.49.49 0 0 1 .45-.35zm-.89-10.17a.46.46 0 0 1-.36.17H5.09a.46.46 0 0 1-.36-.17c-.08-.09-.19-.24-.26-.34A.47.47 0 0 1 4.85 5h5.3a.47.47 0 0 1 .38.74c-.07.1-.18.26-.26.34z"></path>
  </symbol>

  <symbol id="images" viewBox="0 0 576 512">
    <path fill="currentColor" d="M528 32H112c-26.51 0-48 21.49-48 48v16H48c-26.51 0-48 21.49-48 48v288c0 26.51 21.49 48 48 48h416c26.51 0 48-21.49 48-48v-16h16c26.51 0 48-21.49 48-48V80c0-26.51-21.49-48-48-48zm-48 400c0 8.822-7.178 16-16 16H48c-8.822 0-16-7.178-16-16V144c0-8.822 7.178-16 16-16h16v240c0 26.51 21.49 48 48 48h368v16zm64-64c0 8.822-7.178 16-16 16H112c-8.822 0-16-7.178-16-16V80c0-8.822 7.178-16 16-16h416c8.822 0 16 7.178 16 16v288zM176 200c30.928 0 56-25.072 56-56s-25.072-56-56-56-56 25.072-56 56 25.072 56 56 56zm0-80c13.234 0 24 10.766 24 24s-10.766 24-24 24-24-10.766-24-24 10.766-24 24-24zm240.971 23.029c-9.373-9.373-24.568-9.373-33.941 0L288 238.059l-31.029-31.03c-9.373-9.373-24.569-9.373-33.941 0l-88 88A24.002 24.002 0 0 0 128 312v28c0 6.627 5.373 12 12 12h360c6.627 0 12-5.373 12-12v-92c0-6.365-2.529-12.47-7.029-16.971l-88-88zM480 320H160v-4.686l80-80 48 48 112-112 80 80V320z"></path>
  </symbol>

  <symbol id="industry-alt" viewBox="0 0 20 17.5">
    <defs>
      <style>.cls-1{fill:#00313c}</style>
    </defs>
    <path class="cls-1" d="M20 16.56a.94.94 0 0 1-.94.94H.94a.94.94 0 0 1-.94-.94V.94A.94.94 0 0 1 .94 0h3.12A.94.94 0 0 1 5 .94v7.23l6.14-3.07a.94.94 0 0 1 1.36.84v2.23l6.14-3.07a.94.94 0 0 1 1.36.84zM3.75 1.25h-2.5v15h17.5V6.44L11.7 10a.31.31 0 0 1-.45-.28V6.44L4.2 10a.31.31 0 0 1-.45-.28zm2 12.5H4.22a.47.47 0 0 1-.47-.47v-1.56a.47.47 0 0 1 .47-.47h1.56a.47.47 0 0 1 .47.47v1.56a.47.47 0 0 1-.47.47zm5 0H9.22a.47.47 0 0 1-.47-.47v-1.56a.47.47 0 0 1 .47-.47h1.56a.47.47 0 0 1 .47.47v1.56a.47.47 0 0 1-.47.47zm3.44 0a.47.47 0 0 1-.47-.47v-1.56a.47.47 0 0 1 .47-.47h1.56a.47.47 0 0 1 .47.47v1.56a.47.47 0 0 1-.47.47z"></path>
  </symbol>

  <symbol id="info-circle" viewBox="0 0 512 512">
    <path fill="currentColor"
          d="M256 8C119.043 8 8 119.083 8 256c0 136.997 111.043 248 248 248s248-111.003 248-248C504 119.083 392.957 8 256 8zm0 448c-110.532 0-200-89.431-200-200 0-110.495 89.472-200 200-200 110.491 0 200 89.471 200 200 0 110.53-89.431 200-200 200zm0-338c23.196 0 42 18.804 42 42s-18.804 42-42 42-42-18.804-42-42 18.804-42 42-42zm56 254c0 6.627-5.373 12-12 12h-88c-6.627 0-12-5.373-12-12v-24c0-6.627 5.373-12 12-12h12v-64h-12c-6.627 0-12-5.373-12-12v-24c0-6.627 5.373-12 12-12h64c6.627 0 12 5.373 12 12v100h12c6.627 0 12 5.373 12 12v24z">
    </path>
  </symbol>

  <symbol id="instagram" viewBox="0 0 448 512">
    <path fill="currentColor" d="M224.1 141c-63.6 0-114.9 51.3-114.9 114.9s51.3 114.9 114.9 114.9S339 319.5 339 255.9 287.7 141 224.1 141zm0 189.6c-41.1 0-74.7-33.5-74.7-74.7s33.5-74.7 74.7-74.7 74.7 33.5 74.7 74.7-33.6 74.7-74.7 74.7zm146.4-194.3c0 14.9-12 26.8-26.8 26.8-14.9 0-26.8-12-26.8-26.8s12-26.8 26.8-26.8 26.8 12 26.8 26.8zm76.1 27.2c-1.7-35.9-9.9-67.7-36.2-93.9-26.2-26.2-58-34.4-93.9-36.2-37-2.1-147.9-2.1-184.9 0-35.8 1.7-67.6 9.9-93.9 36.1s-34.4 58-36.2 93.9c-2.1 37-2.1 147.9 0 184.9 1.7 35.9 9.9 67.7 36.2 93.9s58 34.4 93.9 36.2c37 2.1 147.9 2.1 184.9 0 35.9-1.7 67.7-9.9 93.9-36.2 26.2-26.2 34.4-58 36.2-93.9 2.1-37 2.1-147.8 0-184.8zM398.8 388c-7.8 19.6-22.9 34.7-42.6 42.6-29.5 11.7-99.5 9-132.1 9s-102.7 2.6-132.1-9c-19.6-7.8-34.7-22.9-42.6-42.6-11.7-29.5-9-99.5-9-132.1s-2.6-102.7 9-132.1c7.8-19.6 22.9-34.7 42.6-42.6 29.5-11.7 99.5-9 132.1-9s102.7-2.6 132.1 9c19.6 7.8 34.7 22.9 42.6 42.6 11.7 29.5 9 99.5 9 132.1s2.7 102.7-9 132.1z"></path>
  </symbol>

  <symbol id="link" viewBox="0 0 512 512">
    <path fill="currentColor" d="M301.148 394.702l-79.2 79.19c-50.778 50.799-133.037 50.824-183.84 0-50.799-50.778-50.824-133.037 0-183.84l79.19-79.2a132.833 132.833 0 0 1 3.532-3.403c7.55-7.005 19.795-2.004 20.208 8.286.193 4.807.598 9.607 1.216 14.384.481 3.717-.746 7.447-3.397 10.096-16.48 16.469-75.142 75.128-75.3 75.286-36.738 36.759-36.731 96.188 0 132.94 36.759 36.738 96.188 36.731 132.94 0l79.2-79.2.36-.36c36.301-36.672 36.14-96.07-.37-132.58-8.214-8.214-17.577-14.58-27.585-19.109-4.566-2.066-7.426-6.667-7.134-11.67a62.197 62.197 0 0 1 2.826-15.259c2.103-6.601 9.531-9.961 15.919-7.28 15.073 6.324 29.187 15.62 41.435 27.868 50.688 50.689 50.679 133.17 0 183.851zm-90.296-93.554c12.248 12.248 26.362 21.544 41.435 27.868 6.388 2.68 13.816-.68 15.919-7.28a62.197 62.197 0 0 0 2.826-15.259c.292-5.003-2.569-9.604-7.134-11.67-10.008-4.528-19.371-10.894-27.585-19.109-36.51-36.51-36.671-95.908-.37-132.58l.36-.36 79.2-79.2c36.752-36.731 96.181-36.738 132.94 0 36.731 36.752 36.738 96.181 0 132.94-.157.157-58.819 58.817-75.3 75.286-2.651 2.65-3.878 6.379-3.397 10.096a163.156 163.156 0 0 1 1.216 14.384c.413 10.291 12.659 15.291 20.208 8.286a131.324 131.324 0 0 0 3.532-3.403l79.19-79.2c50.824-50.803 50.799-133.062 0-183.84-50.802-50.824-133.062-50.799-183.84 0l-79.2 79.19c-50.679 50.682-50.688 133.163 0 183.851z"></path>
  </symbol>

  <symbol id="linkedin" viewBox="0 0 448 512">
    <path fill="currentColor" d="M100.3 448H7.4V148.9h92.9V448zM53.8 108.1C24.1 108.1 0 83.5 0 53.8S24.1 0 53.8 0s53.8 24.1 53.8 53.8-24.1 54.3-53.8 54.3zM448 448h-92.7V302.4c0-34.7-.7-79.2-48.3-79.2-48.3 0-55.7 37.7-55.7 76.7V448h-92.8V148.9h89.1v40.8h1.3c12.4-23.5 42.7-48.3 87.9-48.3 94 0 111.3 61.9 111.3 142.3V448h-.1z"></path>
  </symbol>

  <symbol id="location-arrow" viewBox="0 0 512 512">
    <path fill="currentColor" d="M461.9 0c-5.73 0-11.59 1.1-17.39 3.52L28.74 195.41c-47.97 22.39-31.98 92.75 19.19 92.75h175.91v175.91c0 30.01 24.21 47.93 48.74 47.93 17.3 0 34.75-8.9 44.01-28.74l191.9-415.78C522.06 34.89 494.14 0 461.9 0zm17.55 54.08L287.6 469.74c-3.18 6.82-8.24 10.28-15.03 10.28-5.8 0-16.76-3.33-16.76-15.94v-207.9H47.93c-11.45 0-14.64-8.83-15.49-12.63-1.1-4.93-1.27-13.98 9.7-19.1L456.82 33.04c1.71-.71 3.37-1.05 5.09-1.05 5.42 0 11.49 3.65 15.11 9.08 2.19 3.29 4.32 8.41 2.43 13.01z"></path>
  </symbol>

  <symbol id="lock" viewBox="0 0 17.5 20">
    <path fill="currentColor" d="M17.5 10.63v7.5A1.87 1.87 0 0 1 15.63 20H1.88A1.88 1.88 0 0 1 0 18.13v-7.5a1.88 1.88 0 0 1 1.88-1.88h.93V5.94a5.94 5.94 0 0 1 11.88 0v2.81h.94a1.88 1.88 0 0 1 1.87 1.88zm-5.94-4.69a2.81 2.81 0 1 0-5.62 0v2.81h5.62z"></path>
  </symbol>

  <symbol id="mail" viewBox="0 0 12.89 9.53">
    <path fill="currentColor" class="a" d="M12.72 3.56a.51.51 0 0 0-.61-.05l-.59.36-3.23 2.22a3.24 3.24 0 0 1-1.85.55 3.21 3.21 0 0 1-1.84-.55L1.25 3.78.8 3.51a.51.51 0 0 0-.61.05L0 3.71v3.86a2 2 0 0 0 2 2h9a2 2 0 0 0 2-2V3.69z"></path>
    <path fill="currentColor" class="a" d="M1.24 1.69l1.28.89h.09l3.3 2.28a1.06 1.06 0 0 0 1 0l4.7-3.25a1.18 1.18 0 0 1 1.2-.06A2 2 0 0 0 10.92 0H2a2 2 0 0 0-2 1.63 1.19 1.19 0 0 1 1.24.06z"></path>
  </symbol>

  <symbol id="mailbox" viewBox="0 0 576 512">
    <path fill="currentColor" d="M432 64H144A144 144 0 0 0 0 208v208a32 32 0 0 0 32 32h512a32 32 0 0 0 32-32V208A144 144 0 0 0 432 64zM256 416H32V208a112 112 0 0 1 224 0zm288 0H288V208c0-45.52-21.54-85.61-54.51-112H432a112.12 112.12 0 0 1 112 112zm-48-224H328a8 8 0 0 0-8 8v16a8 8 0 0 0 8 8h88v80a16 16 0 0 0 16 16h64a16 16 0 0 0 16-16v-96a16 16 0 0 0-16-16zm-16 96h-32v-64h32zm-296-96h-80a8 8 0 0 0-8 8v16a8 8 0 0 0 8 8h80a8 8 0 0 0 8-8v-16a8 8 0 0 0-8-8z"></path>
  </symbol>

  <symbol id="map-marker" viewBox="0 0 384 512">
    <path fill="currentColor" d="M192 96c-52.935 0-96 43.065-96 96s43.065 96 96 96 96-43.065 96-96-43.065-96-96-96zm0 160c-35.29 0-64-28.71-64-64s28.71-64 64-64 64 28.71 64 64-28.71 64-64 64zm0-256C85.961 0 0 85.961 0 192c0 77.413 26.97 99.031 172.268 309.67 9.534 13.772 29.929 13.774 39.465 0C357.03 291.031 384 269.413 384 192 384 85.961 298.039 0 192 0zm0 473.931C52.705 272.488 32 256.494 32 192c0-42.738 16.643-82.917 46.863-113.137S149.262 32 192 32s82.917 16.643 113.137 46.863S352 149.262 352 192c0 64.49-20.692 80.47-160 281.931z"></path>
  </symbol>

  <symbol id="map-marker-alt" viewBox="0 0 384 512">
    <path fill="currentColor" d="M172.268 501.67C26.97 291.031 0 269.413 0 192 0 85.961 85.961 0 192 0s192 85.961 192 192c0 77.413-26.97 99.031-172.268 309.67-9.535 13.774-29.93 13.773-39.464 0zM192 272c44.183 0 80-35.817 80-80s-35.817-80-80-80-80 35.817-80 80 35.817 80 80 80z"></path>
  </symbol>

  <symbol id="mobile-alt" viewBox="0 0 320 512">
    <path fill="currentColor" d="M192 416c0 17.7-14.3 32-32 32s-32-14.3-32-32 14.3-32 32-32 32 14.3 32 32zm32-320H96v240h128V96m20-32c6.6 0 12 5.4 12 12v280c0 6.6-5.4 12-12 12H76c-6.6 0-12-5.4-12-12V76c0-6.6 5.4-12 12-12h168zm76-16v416c0 26.5-21.5 48-48 48H48c-26.5 0-48-21.5-48-48V48C0 21.5 21.5 0 48 0h224c26.5 0 48 21.5 48 48zm-32 0c0-8.8-7.2-16-16-16H48c-8.8 0-16 7.2-16 16v416c0 8.8 7.2 16 16 16h224c8.8 0 16-7.2 16-16V48z"></path>
  </symbol>

  <symbol id="pause" viewBox="0 0 448 512">
    <path fill="currentColor" d="M144 479H48c-26.5 0-48-21.5-48-48V79c0-26.5 21.5-48 48-48h96c26.5 0 48 21.5 48 48v352c0 26.5-21.5 48-48 48zm304-48V79c0-26.5-21.5-48-48-48h-96c-26.5 0-48 21.5-48 48v352c0 26.5 21.5 48 48 48h96c26.5 0 48-21.5 48-48z"></path>
  </symbol>

  <symbol id="pen" viewBox="0 0 20 20">
    <path fill="currentColor" d="M19.27 5.73L5.5 19.5 1 20H.94A.93.93 0 0 1 0 19l.5-4.5L14.27.73A2.45 2.45 0 0 1 16 0a2.49 2.49 0 0 1 1.8.73l1.47 1.47a2.5 2.5 0 0 1 0 3.53zM15.24 8L12 4.76 1.7 15.07l-.41 3.64 3.63-.4zm3.14-4.92l-1.46-1.46a1.24 1.24 0 0 0-1.77 0l-2.26 2.26 3.23 3.23 2.26-2.26a1.25 1.25 0 0 0 0-1.77z"></path>
  </symbol>

  <symbol id="phone" viewBox="0 0 512 512">
    <path fill="currentColor" d="M487.8 24.1L387 .8c-14.7-3.4-29.8 4.2-35.8 18.1l-46.5 108.5c-5.5 12.7-1.8 27.7 8.9 36.5l53.9 44.1c-34 69.2-90.3 125.6-159.6 159.6l-44.1-53.9c-8.8-10.7-23.8-14.4-36.5-8.9L18.9 351.3C5 357.3-2.6 372.3.8 387L24 487.7C27.3 502 39.9 512 54.5 512 306.7 512 512 307.8 512 54.5c0-14.6-10-27.2-24.2-30.4zM55.1 480l-23-99.6 107.4-46 59.5 72.8c103.6-48.6 159.7-104.9 208.1-208.1l-72.8-59.5 46-107.4 99.6 23C479.7 289.7 289.6 479.7 55.1 480z"></path>
  </symbol>

  <symbol id="phone-plus" viewBox="0 0 512 512">
    <path fill="currentColor" d="M8 128h88v88c0 4.4 3.6 8 8 8h16c4.4 0 8-3.6 8-8v-88h88c4.4 0 8-3.6 8-8v-16c0-4.4-3.6-8-8-8h-88V8c0-4.4-3.6-8-8-8h-16c-4.4 0-8 3.6-8 8v88H8c-4.4 0-8 3.6-8 8v16c0 4.4 3.6 8 8 8zM487.8 24.1L387 .8c-14.7-3.4-29.8 4.2-35.8 18.1l-46.5 108.5c-5.5 12.7-1.8 27.7 8.9 36.5l53.9 44.1c-34 69.2-90.3 125.6-159.6 159.6l-44.1-53.9c-8.8-10.7-23.8-14.4-36.5-8.9L18.9 351.3c-13.9 6-21.5 21-18.1 35.8L24 487.9C27.3 502 39.9 512 54.5 512 306.7 512 512 307.8 512 54.5c0-14.6-10-27.2-24.2-30.4zM55.1 480l-23-99.6 107.4-46 59.5 72.8c103.6-48.6 159.7-104.9 208.1-208.1l-72.8-59.5 46-107.4 99.6 23C479.7 289.7 289.6 479.7 55.1 480z"></path>
  </symbol>

  <symbol id="play" viewBox="0 0 448 512">
    <path fill="currentColor" d="M424.4 214.7L72.4 6.6C43.8-10.3 0 6.1 0 47.9V464c0 37.5 40.7 60.1 72.4 41.3l352-208c31.4-18.5 31.5-64.1 0-82.6z"></path>
  </symbol>

  <symbol id="podcast" viewBox="0 0 448 512">
    <path fill="currentColor" d="M267.429 488.563C262.286 507.573 242.858 512 224 512c-18.857 0-38.286-4.427-43.428-23.437C172.927 460.134 160 388.898 160 355.75c0-35.156 31.142-43.75 64-43.75s64 8.594 64 43.75c0 32.949-12.871 104.179-20.571 132.813zM156.867 288.554c-18.693-18.308-29.958-44.173-28.784-72.599 2.054-49.724 42.395-89.956 92.124-91.881C274.862 121.958 320 165.807 320 220c0 26.827-11.064 51.116-28.866 68.552-2.675 2.62-2.401 6.986.628 9.187 9.312 6.765 16.46 15.343 21.234 25.363 1.741 3.654 6.497 4.66 9.449 1.891 28.826-27.043 46.553-65.783 45.511-108.565-1.855-76.206-63.595-138.208-139.793-140.369C146.869 73.753 80 139.215 80 220c0 41.361 17.532 78.7 45.55 104.989 2.953 2.771 7.711 1.77 9.453-1.887 4.774-10.021 11.923-18.598 21.235-25.363 3.029-2.2 3.304-6.566.629-9.185zM224 0C100.204 0 0 100.185 0 224c0 89.992 52.602 165.647 125.739 201.408 4.333 2.118 9.267-1.544 8.535-6.31-2.382-15.512-4.342-30.946-5.406-44.339-.146-1.836-1.149-3.486-2.678-4.512-47.4-31.806-78.564-86.016-78.187-147.347.592-96.237 79.29-174.648 175.529-174.899C320.793 47.747 400 126.797 400 224c0 61.932-32.158 116.49-80.65 147.867-.999 14.037-3.069 30.588-5.624 47.23-.732 4.767 4.203 8.429 8.535 6.31C395.227 389.727 448 314.187 448 224 448 100.205 347.815 0 224 0zm0 160c-35.346 0-64 28.654-64 64s28.654 64 64 64 64-28.654 64-64-28.654-64-64-64z"></path>
  </symbol>

  <symbol id="rss" viewBox="0 0 448 512">
    <path fill="currentColor" d="M128.081 415.959c0 35.369-28.672 64.041-64.041 64.041S0 451.328 0 415.959s28.672-64.041 64.041-64.041 64.04 28.673 64.04 64.041zm175.66 47.25c-8.354-154.6-132.185-278.587-286.95-286.95C7.656 175.765 0 183.105 0 192.253v48.069c0 8.415 6.49 15.472 14.887 16.018 111.832 7.284 201.473 96.702 208.772 208.772.547 8.397 7.604 14.887 16.018 14.887h48.069c9.149.001 16.489-7.655 15.995-16.79zm144.249.288C439.596 229.677 251.465 40.445 16.503 32.01 7.473 31.686 0 38.981 0 48.016v48.068c0 8.625 6.835 15.645 15.453 15.999 191.179 7.839 344.627 161.316 352.465 352.465.353 8.618 7.373 15.453 15.999 15.453h48.068c9.034-.001 16.329-7.474 16.005-16.504z"></path>
  </symbol>

  <symbol id="search" viewBox="0 0 512 512">
    <path fill="currentColor" d="M508.5 468.9L387.1 347.5c-2.3-2.3-5.3-3.5-8.5-3.5h-13.2c31.5-36.5 50.6-84 50.6-136C416 93.1 322.9 0 208 0S0 93.1 0 208s93.1 208 208 208c52 0 99.5-19.1 136-50.6v13.2c0 3.2 1.3 6.2 3.5 8.5l121.4 121.4c4.7 4.7 12.3 4.7 17 0l22.6-22.6c4.7-4.7 4.7-12.3 0-17zM208 368c-88.4 0-160-71.6-160-160S119.6 48 208 48s160 71.6 160 160-71.6 160-160 160z"></path>
  </symbol>

  <symbol id="search-minus" viewBox="0 0 512 512">
    <path fill="currentColor" d="M312 196v24c0 6.6-5.4 12-12 12H116c-6.6 0-12-5.4-12-12v-24c0-6.6 5.4-12 12-12h184c6.6 0 12 5.4 12 12zm196.5 289.9l-22.6 22.6c-4.7 4.7-12.3 4.7-17 0L347.5 387.1c-2.3-2.3-3.5-5.3-3.5-8.5v-13.2c-36.5 31.5-84 50.6-136 50.6C93.1 416 0 322.9 0 208S93.1 0 208 0s208 93.1 208 208c0 52-19.1 99.5-50.6 136h13.2c3.2 0 6.2 1.3 8.5 3.5l121.4 121.4c4.7 4.7 4.7 12.3 0 17zM368 208c0-88.4-71.6-160-160-160S48 119.6 48 208s71.6 160 160 160 160-71.6 160-160z"></path>
  </symbol>

  <symbol id="search-plus" viewBox="0 0 512 512">
    <path fill="currentColor" d="M312 196v24c0 6.6-5.4 12-12 12h-68v68c0 6.6-5.4 12-12 12h-24c-6.6 0-12-5.4-12-12v-68h-68c-6.6 0-12-5.4-12-12v-24c0-6.6 5.4-12 12-12h68v-68c0-6.6 5.4-12 12-12h24c6.6 0 12 5.4 12 12v68h68c6.6 0 12 5.4 12 12zm196.5 289.9l-22.6 22.6c-4.7 4.7-12.3 4.7-17 0L347.5 387.1c-2.3-2.3-3.5-5.3-3.5-8.5v-13.2c-36.5 31.5-84 50.6-136 50.6C93.1 416 0 322.9 0 208S93.1 0 208 0s208 93.1 208 208c0 52-19.1 99.5-50.6 136h13.2c3.2 0 6.2 1.3 8.5 3.5l121.4 121.4c4.7 4.7 4.7 12.3 0 17zM368 208c0-88.4-71.6-160-160-160S48 119.6 48 208s71.6 160 160 160 160-71.6 160-160z"></path>
  </symbol>

  <symbol id="share" viewBox="0 0 448 512">
    <path fill="currentColor" d="M352 320c-28.6 0-54.2 12.5-71.8 32.3l-95.5-59.7c9.6-23.4 9.7-49.8 0-73.2l95.5-59.7c17.6 19.8 43.2 32.3 71.8 32.3 53 0 96-43 96-96S405 0 352 0s-96 43-96 96c0 13 2.6 25.3 7.2 36.6l-95.5 59.7C150.2 172.5 124.6 160 96 160c-53 0-96 43-96 96s43 96 96 96c28.6 0 54.2-12.5 71.8-32.3l95.5 59.7c-4.7 11.3-7.2 23.6-7.2 36.6 0 53 43 96 96 96s96-43 96-96c-.1-53-43.1-96-96.1-96zm0-288c35.3 0 64 28.7 64 64s-28.7 64-64 64-64-28.7-64-64 28.7-64 64-64zM96 320c-35.3 0-64-28.7-64-64s28.7-64 64-64 64 28.7 64 64-28.7 64-64 64zm256 160c-35.3 0-64-28.7-64-64s28.7-64 64-64 64 28.7 64 64-28.7 64-64 64z"></path>
  </symbol>

  <symbol id="spotify" viewBox="0 0 496 512">
    <path fill="currentColor" d="M248 8C111.1 8 0 119.1 0 256s111.1 248 248 248 248-111.1 248-248S384.9 8 248 8zm100.7 364.9c-4.2 0-6.8-1.3-10.7-3.6-62.4-37.6-135-39.2-206.7-24.5-3.9 1-9 2.6-11.9 2.6-9.7 0-15.8-7.7-15.8-15.8 0-10.3 6.1-15.2 13.6-16.8 81.9-18.1 165.6-16.5 237 26.2 6.1 3.9 9.7 7.4 9.7 16.5s-7.1 15.4-15.2 15.4zm26.9-65.6c-5.2 0-8.7-2.3-12.3-4.2-62.5-37-155.7-51.9-238.6-29.4-4.8 1.3-7.4 2.6-11.9 2.6-10.7 0-19.4-8.7-19.4-19.4s5.2-17.8 15.5-20.7c27.8-7.8 56.2-13.6 97.8-13.6 64.9 0 127.6 16.1 177 45.5 8.1 4.8 11.3 11 11.3 19.7-.1 10.8-8.5 19.5-19.4 19.5zm31-76.2c-5.2 0-8.4-1.3-12.9-3.9-71.2-42.5-198.5-52.7-280.9-29.7-3.6 1-8.1 2.6-12.9 2.6-13.2 0-23.3-10.3-23.3-23.6 0-13.6 8.4-21.3 17.4-23.9 35.2-10.3 74.6-15.2 117.5-15.2 73 0 149.5 15.2 205.4 47.8 7.8 4.5 12.9 10.7 12.9 22.6 0 13.6-11 23.3-23.2 23.3z"></path>
  </symbol>

  <symbol id="sticky-note" viewBox="0 0 448 512">
    <path fill="currentColor" d="M448 348.106V80c0-26.51-21.49-48-48-48H48C21.49 32 0 53.49 0 80v351.988c0 26.51 21.49 48 48 48h268.118a48 48 0 0 0 33.941-14.059l83.882-83.882A48 48 0 0 0 448 348.106zm-120.569 95.196a15.89 15.89 0 0 1-7.431 4.195v-95.509h95.509a15.88 15.88 0 0 1-4.195 7.431l-83.883 83.883zM416 80v239.988H312c-13.255 0-24 10.745-24 24v104H48c-8.837 0-16-7.163-16-16V80c0-8.837 7.163-16 16-16h352c8.837 0 16 7.163 16 16z"></path>
  </symbol>

  <symbol id="tachometer-alt-fast" viewBox="0 0 22.5 17.5">
    <defs>
      <style>.cls-1{fill:#00313c}</style>
    </defs>
    <path class="cls-1" d="M21 16.91a1.24 1.24 0 0 1-1.07.59H2.6a1.24 1.24 0 0 1-1.07-.59 11.25 11.25 0 1 1 19.44 0zM11.25 1.25a10 10 0 0 0-8.64 15H19.9a9.86 9.86 0 0 0 1.35-5 10 10 0 0 0-10-10zm-7.5 10.94a.94.94 0 1 1 .94-.94.94.94 0 0 1-.94.94zm3.13-6.25A.94.94 0 1 1 5.94 5a.94.94 0 0 1 .94.94zm10.17.39L13.25 11a2.44 2.44 0 0 1 .5 1.48 2.5 2.5 0 1 1-2.5-2.5 2.36 2.36 0 0 1 1 .23l3.8-4.69a.64.64 0 0 1 .95-.07.63.63 0 0 1 .05.88zm-5.8 4.92a1.25 1.25 0 1 0 1.25 1.25 1.25 1.25 0 0 0-1.25-1.25zm-.94-7.5a.94.94 0 1 1 .94.94.94.94 0 0 1-.94-.94zm9.38 7.5a.94.94 0 1 1-.94-.94.94.94 0 0 1 .94.94z"></path>
  </symbol>

  <symbol id="times" viewBox="0 0 320 512">
    <path fill="currentColor" d="M193.94 256L296.5 153.44l21.15-21.15c3.12-3.12 3.12-8.19 0-11.31l-22.63-22.63c-3.12-3.12-8.19-3.12-11.31 0L160 222.06 36.29 98.34c-3.12-3.12-8.19-3.12-11.31 0L2.34 120.97c-3.12 3.12-3.12 8.19 0 11.31L126.06 256 2.34 379.71c-3.12 3.12-3.12 8.19 0 11.31l22.63 22.63c3.12 3.12 8.19 3.12 11.31 0L160 289.94 262.56 392.5l21.15 21.15c3.12 3.12 8.19 3.12 11.31 0l22.63-22.63c3.12-3.12 3.12-8.19 0-11.31L193.94 256z"></path>
  </symbol>

  <symbol id="twitter" viewBox="0 0 512 512">
    <path fill="currentColor" d="M459.37 151.716c.325 4.548.325 9.097.325 13.645 0 138.72-105.583 298.558-298.558 298.558-59.452 0-114.68-17.219-161.137-47.106 8.447.974 16.568 1.299 25.34 1.299 49.055 0 94.213-16.568 130.274-44.832-46.132-.975-84.792-31.188-98.112-72.772 6.498.974 12.995 1.624 19.818 1.624 9.421 0 18.843-1.3 27.614-3.573-48.081-9.747-84.143-51.98-84.143-102.985v-1.299c13.969 7.797 30.214 12.67 47.431 13.319-28.264-18.843-46.781-51.005-46.781-87.391 0-19.492 5.197-37.36 14.294-52.954 51.655 63.675 129.3 105.258 216.365 109.807-1.624-7.797-2.599-15.918-2.599-24.04 0-57.828 46.782-104.934 104.934-104.934 30.213 0 57.502 12.67 76.67 33.137 23.715-4.548 46.456-13.32 66.599-25.34-7.798 24.366-24.366 44.833-46.132 57.827 21.117-2.273 41.584-8.122 60.426-16.243-14.292 20.791-32.161 39.308-52.628 54.253z"></path>
  </symbol>

  <symbol id="user" viewBox="0 0 448 512">
    <path fill="currentColor" d="M313.6 288c-28.7 0-42.5 16-89.6 16-47.1 0-60.8-16-89.6-16C60.2 288 0 348.2 0 422.4V464c0 26.5 21.5 48 48 48h352c26.5 0 48-21.5 48-48v-41.6c0-74.2-60.2-134.4-134.4-134.4zM416 464c0 8.8-7.2 16-16 16H48c-8.8 0-16-7.2-16-16v-41.6C32 365.9 77.9 320 134.4 320c19.6 0 39.1 16 89.6 16 50.4 0 70-16 89.6-16 56.5 0 102.4 45.9 102.4 102.4V464zM224 256c70.7 0 128-57.3 128-128S294.7 0 224 0 96 57.3 96 128s57.3 128 128 128zm0-224c52.9 0 96 43.1 96 96s-43.1 96-96 96-96-43.1-96-96 43.1-96 96-96z"></path>
  </symbol>

  <symbol id="video" viewBox="0 0 576 512">
    <path fill="currentColor" d="M543.9 96c-6.2 0-12.5 1.8-18.2 5.7L416 170.1v-58.3c0-26.4-23.2-47.8-51.8-47.8H51.8C23.2 64 0 85.4 0 111.8v288.4C0 426.6 23.2 448 51.8 448h312.4c28.6 0 51.8-21.4 51.8-47.8v-58.3l109.7 68.3c5.7 4 12.1 5.7 18.2 5.7 16.6 0 32.1-13 32.1-31.5V127.5C576 109 560.5 96 543.9 96zM368 200v198.9c-.6.4-1.8 1.1-3.8 1.1H51.8c-2 0-3.2-.6-3.8-1.1V113.1c.6-.4 1.8-1.1 3.8-1.1h312.4c2 0 3.2.6 3.8 1.1V200zm160 155.2l-112-69.8v-58.7l112-69.8v198.3z"></path>
  </symbol>

  <symbol id="volume-up" viewBox="0 0 576 512">
    <path fill="currentColor" d="M342.91 193.57c-7.81-3.8-17.5-.48-21.34 7.5-3.81 7.97-.44 17.53 7.53 21.34C343.22 229.2 352 242.06 352 256s-8.78 26.8-22.9 33.58c-7.97 3.81-11.34 13.38-7.53 21.34 3.86 8.05 13.54 11.29 21.34 7.5C368.25 306.28 384 282.36 384 256s-15.75-50.29-41.09-62.43zM231.81 64c-5.91 0-11.92 2.18-16.78 7.05L126.06 160H24c-13.26 0-24 10.74-24 24v144c0 13.25 10.74 24 24 24h102.06l88.97 88.95c4.87 4.87 10.88 7.05 16.78 7.05 12.33 0 24.19-9.52 24.19-24.02V88.02C256 73.51 244.13 64 231.81 64zM224 404.67L139.31 320H32V192h107.31L224 107.33v297.34zM421.51 1.83c-7.89-4.08-17.53-1.12-21.66 6.7-4.13 7.81-1.13 17.5 6.7 21.61 84.76 44.55 137.4 131.1 137.4 225.85s-52.64 181.3-137.4 225.85c-7.82 4.11-10.83 13.8-6.7 21.61 4.1 7.75 13.68 10.84 21.66 6.7C516.78 460.06 576 362.67 576 255.99c0-106.67-59.22-204.06-154.49-254.16zM480 255.99c0-66.12-34.02-126.62-88.81-157.87-7.69-4.38-17.59-1.78-22.04 5.89-4.45 7.66-1.77 17.44 5.96 21.86 44.77 25.55 72.61 75.4 72.61 130.12s-27.84 104.58-72.61 130.12c-7.72 4.42-10.4 14.2-5.96 21.86 4.3 7.38 14.06 10.44 22.04 5.89C445.98 382.62 480 322.12 480 255.99z"></path>
  </symbol>

  <symbol id="walking" viewBox="0 0 320 512">
    <path fill="currentColor" d="M305.5 247.3l-19.6-21.1-8.7-28.5c-7.9-26.1-23.3-47.8-43.2-62.8 19.3-13.4 32-35.7 32-60.9 0-40.8-33.2-74-74-74s-74 33.2-74 74c0 15.7 4.9 30.3 13.3 42.3-14.7 3.8-28.4 9.8-45.3 17.4l-8.6 3.8c-24 10.5-43.4 30.1-54.9 55.2l-11.8 28c-7.3 17.2-5.7 35.7 4.2 50.7C24.6 286 41.2 295 58.4 295c12.5 0 24-4.7 32.9-12.9.2 1.4.4 2.7.6 4.1l-14.2 38.9-16.3 44.6L14 422.1c-18.7 20.4-18.7 52.4 0 72.9 9.6 10.5 23.2 16.6 37.2 16.6 14 0 27.6-6 37.2-16.6l46.7-51.2c9.6-10.6 17-22.9 22-36.5l8.7-23.9 10.6 10.7c.5.5.8 1.3.9 1.9l15.6 74.2C198 494.5 219 512 242.8 512c4 0 8.1-.5 12.1-1.5 27.4-6.9 44-34.6 38-62.9l-15.6-74.1c-2.8-13.2-7.8-25.6-14.7-36.7 1.8.2 3.6.3 5.5.3 20.3 0 38.9-12.6 47.4-32.2 8.6-19.5 4.7-41.6-10-57.6zM192 32c23.2 0 42 18.8 42 42s-18.8 42-42 42-42-18.8-42-42 18.8-42 42-42zm-65 364.3c-3.5 9.7-8.8 18.4-15.6 25.9l-46.7 51.2c-3.7 4.1-8.6 6.2-13.6 6.2-4.9 0-9.8-2.1-13.6-6.2-7.5-8.2-7.5-21.5 0-29.7l46.7-51.2c3.1-3.4 5.5-7.4 7.1-11.8l16.3-44.6.1.1 1 1.2 29 29.3-10.7 29.6zm141.1-91.1c-4.4 0-9-1.8-13-6.2l-23.5-25.3c-5-5.4-8.8-12.1-11-19.4-11.4-37.5-11.5-39.9-17.5-48.5l-20.9 91.7 43 43.4c10.4 10.6 17.7 24.2 20.8 39.3l15.6 74.1c2.4 11.3-4 22.6-14.4 25.2-1.5.4-3 .5-4.4.5-9.4 0-16.7-7.6-18.6-16.3l-15.6-74.2c-1.4-6.9-4.7-13-9.5-17.8L136 307.8c-11.6-13.8-15.7-31.2-11.9-47.7l15.8-69.3c-9 3.2-18.1 7.3-35.4 15-8 3.5-14.5 10-18.3 18.4L75 250.8c-3.7 8.7-10.1 12.3-16.6 12.3-12.5 0-25.2-13.4-18.2-29.9L51.7 206c8.3-18.2 21.9-31.9 38.6-39.2 34.2-15.1 48.7-22.8 76.6-22.8 36.3 0 68.3 25.3 79.8 63l10.3 33.9c.3 1 .8 2 1.6 2.8L282 269c14.1 15.3.9 36.2-13.9 36.2z"></path>
  </symbol>

  <symbol id="youtube" viewBox="0 0 576 512">
    <path fill="currentColor" d="M549.655 124.083c-6.281-23.65-24.787-42.276-48.284-48.597C458.781 64 288 64 288 64S117.22 64 74.629 75.486c-23.497 6.322-42.003 24.947-48.284 48.597-11.412 42.867-11.412 132.305-11.412 132.305s0 89.438 11.412 132.305c6.281 23.65 24.787 41.5 48.284 47.821C117.22 448 288 448 288 448s170.78 0 213.371-11.486c23.497-6.321 42.003-24.171 48.284-47.821 11.412-42.867 11.412-132.305 11.412-132.305s0-89.438-11.412-132.305zm-317.51 213.508V175.185l142.739 81.205-142.739 81.201z"></path>
  </symbol>
</svg>